<?xml version="1.0" encoding="UTF-8"?>
<!DOCTYPE svg PUBLIC "-//W3C//DTD SVG 1.1//EN" "http://www.w3.org/Graphics/SVG/1.1/DTD/svg11.dtd">
<!-- Creator: CorelDRAW -->
<svg xmlns="http://www.w3.org/2000/svg" xml:space="preserve" width="2.032mm" height="2.032mm" version="1.1" style="shape-rendering:geometricPrecision; text-rendering:geometricPrecision; image-rendering:optimizeQuality; fill-rule:evenodd; clip-rule:evenodd"
viewBox="0 0 103.55 103.55"
 xmlns:xlink="http://www.w3.org/1999/xlink"
 xmlns:xodm="http://www.corel.com/coreldraw/odm/2003">
 <defs>
  <style type="text/css">
   <![CDATA[
    .fil0 {fill:black}
   ]]>
  </style>
 </defs>
 <g id="Layer_x0020_1">
  <metadata id="CorelCorpID_0Corel-Layer"/>
  <path class="fil0" d="M103.55 0l-8.18 0 0 2.88 -6.59 0 0 -2.88 -5.01 0 0 2.88 -6.59 0 0 -2.88 -5 0 0 2.88 -6.59 0 0 -2.88 -5.01 0 0 2.88 -6.59 0 0 -2.88 -5.01 0 0 2.88 -6.59 0 0 -2.88 -5 0 0 2.88 -6.59 0 0 -2.88 -5.01 0 0 2.88 -6.59 0 0 -2.88 -5.01 0 0 2.88 -6.59 0 0 -2.88 -7.6 0 0 94.92c0,4.75 3.88,8.63 8.63,8.63l86.29 0c4.75,0 8.63,-3.88 8.63,-8.63l0 -94.92zm-29.97 79.34c2.38,0 4.32,1.94 4.32,4.32 0,2.38 -1.94,4.32 -4.32,4.32l-60.65 0c-2.38,0 -4.32,-1.94 -4.32,-4.32 0,-2.38 1.94,-4.32 4.32,-4.32l60.65 0zm0.35 -55.09c2.38,0 4.32,1.94 4.32,4.32 0,2.38 -1.94,4.32 -4.32,4.32l-60.65 0c-2.38,0 -4.32,-1.94 -4.32,-4.32 0,-2.38 1.94,-4.32 4.32,-4.32l60.65 0zm0 27.86c2.38,0 4.32,1.94 4.32,4.32 0,2.38 -1.94,4.32 -4.32,4.32l-60.65 0c-2.38,0 -4.32,-1.94 -4.32,-4.32 0,-2.38 1.94,-4.32 4.32,-4.32l60.65 0z"/>
 </g>
</svg>
