<?xml version="1.0" encoding="UTF-8"?>
<!DOCTYPE svg PUBLIC "-//W3C//DTD SVG 1.1//EN" "http://www.w3.org/Graphics/SVG/1.1/DTD/svg11.dtd">
<!-- Creator: CorelDRAW (OEM Version) -->
<svg xmlns="http://www.w3.org/2000/svg" xml:space="preserve" width="26px" height="26px" version="1.1" style="shape-rendering:geometricPrecision; text-rendering:geometricPrecision; image-rendering:optimizeQuality; fill-rule:evenodd; clip-rule:evenodd"
viewBox="0 0 26 26"
 xmlns:xlink="http://www.w3.org/1999/xlink"
 xmlns:xodm="http://www.corel.com/coreldraw/odm/2003">
 <defs>
  <style type="text/css">
   <![CDATA[
    .str1 {stroke:black;stroke-width:2;stroke-linecap:round;stroke-miterlimit:2.61313}
    .str0 {stroke:black;stroke-width:2;stroke-linecap:round;stroke-linejoin:round;stroke-miterlimit:22.9256}
    .fil0 {fill:none}
   ]]>
  </style>
 </defs>
 <g id="Layer_x0020_1">
  <metadata id="CorelCorpID_0Corel-Layer"/>
  <g id="_1942393797408">
   <path class="fil0 str0" d="M25 1l-1.9 0 0 0.67 -1.52 0 0 -0.67 -1.17 0 0 0.67 -1.52 0 0 -0.67 -1.16 0 0 0.67 -1.53 0 0 -0.67 -1.16 0 0 0.67 -1.53 0 0 -0.67 -1.16 0 0 0.67 -1.53 0 0 -0.67 -1.16 0 0 0.67 -1.52 0 0 -0.67 -1.16 0 0 0.67 -1.53 0 0 -0.67 -1.16 0 0 0.67 -1.53 0 0 -0.67 -1.76 0 0 22c0,1.1 0.9,2 2,2l20 0c1.1,0 2,-0.9 2,-2l0 -22z"/>
   <line class="fil0 str1" x1="18.13" y1="14.08" x2="4.08" y2= "14.08" />
   <line class="fil0 str1" x1="18.13" y1="7.62" x2="4.08" y2= "7.62" />
   <line class="fil0 str1" x1="18.05" y1="20.39" x2="4" y2= "20.39" />
  </g>
 </g>
</svg>
