<?xml version="1.0" encoding="UTF-8"?>
<!DOCTYPE svg PUBLIC "-//W3C//DTD SVG 1.1//EN" "http://www.w3.org/Graphics/SVG/1.1/DTD/svg11.dtd">
<!-- Creator: CorelDRAW (OEM Version) -->
<svg xmlns="http://www.w3.org/2000/svg" xml:space="preserve" width="26px" height="26px" version="1.1" style="shape-rendering:geometricPrecision; text-rendering:geometricPrecision; image-rendering:optimizeQuality; fill-rule:evenodd; clip-rule:evenodd"
viewBox="0 0 26 26"
 xmlns:xlink="http://www.w3.org/1999/xlink"
 xmlns:xodm="http://www.corel.com/coreldraw/odm/2003">
 <defs>
  <style type="text/css">
   <![CDATA[
    .str0 {stroke:black;stroke-width:2;stroke-miterlimit:2.61313}
    .fil0 {fill:none}
   ]]>
  </style>
 </defs>
 <g id="Layer_x0020_1">
  <metadata id="CorelCorpID_0Corel-Layer"/>
  <g id="_1942385883312">
   <path class="fil0 str0" d="M25 11.69l0 12.53c0,0.43 -0.35,0.78 -0.77,0.78l-22.46 0c-0.42,0 -0.77,-0.35 -0.77,-0.78l0 -12.53c0,-0.23 0.09,-0.44 0.26,-0.59l5.74 -5.06 5.49 -4.85c0.29,-0.25 0.72,-0.25 1.02,0l5.49 4.85 5.73 5.06c0.18,0.15 0.27,0.35 0.27,0.59z"/>
   <path class="fil0 str0" d="M17.94 12.7l2.46 0c0.42,0 0.77,0.35 0.77,0.78l0 2.47c0,0.43 -0.35,0.78 -0.77,0.78l-2.46 0c-0.43,0 -0.78,-0.35 -0.78,-0.78l0 -2.47c0,-0.43 0.35,-0.78 0.78,-0.78z"/>
  </g>
 </g>
</svg>
