<?xml version="1.0" encoding="UTF-8"?>
<!DOCTYPE svg PUBLIC "-//W3C//DTD SVG 1.1//EN" "http://www.w3.org/Graphics/SVG/1.1/DTD/svg11.dtd">
<!-- Creator: CorelDRAW -->
<svg xmlns="http://www.w3.org/2000/svg" xml:space="preserve" width="2.032mm" height="2.0321mm" version="1.1" style="shape-rendering:geometricPrecision; text-rendering:geometricPrecision; image-rendering:optimizeQuality; fill-rule:evenodd; clip-rule:evenodd"
viewBox="0 0 87.08 87.09"
 xmlns:xlink="http://www.w3.org/1999/xlink"
 xmlns:xodm="http://www.corel.com/coreldraw/odm/2003">
 <defs>
  <style type="text/css">
   <![CDATA[
    .fil0 {fill:black}
   ]]>
  </style>
 </defs>
 <g id="Layer_x0020_1">
  <metadata id="CorelCorpID_0Corel-Layer"/>
  <path class="fil0" d="M87.08 38.78l0 45.46c0,1.56 -1.26,2.84 -2.81,2.84l-81.47 0c-1.54,0 -2.81,-1.28 -2.81,-2.84l0 -45.46c0,-0.85 0.33,-1.58 0.96,-2.14l20.81 -18.36 19.92 -17.58c1.07,-0.94 2.63,-0.94 3.69,0l19.92 17.58 20.81 18.36c0.63,0.56 0.96,1.29 0.96,2.13zm-25.61 3.66l8.91 0c1.55,0 2.82,1.27 2.82,2.84l0 8.97c0,1.56 -1.27,2.84 -2.82,2.84l-8.91 0c-1.55,0 -2.82,-1.27 -2.82,-2.84l0 -8.97c0,-1.56 1.26,-2.84 2.82,-2.84z"/>
 </g>
</svg>
