<?xml version="1.0" encoding="UTF-8"?>
<!DOCTYPE svg PUBLIC "-//W3C//DTD SVG 1.1//EN" "http://www.w3.org/Graphics/SVG/1.1/DTD/svg11.dtd">
<!-- Creator: CorelDRAW -->
<svg xmlns="http://www.w3.org/2000/svg" xml:space="preserve" width="2.0324mm" height="2.0324mm" version="1.1" style="shape-rendering:geometricPrecision; text-rendering:geometricPrecision; image-rendering:optimizeQuality; fill-rule:evenodd; clip-rule:evenodd"
viewBox="0 0 127.85 127.85"
 xmlns:xlink="http://www.w3.org/1999/xlink"
 xmlns:xodm="http://www.corel.com/coreldraw/odm/2003">
 <defs>
  <style type="text/css">
   <![CDATA[
    .fil0 {fill:black}
   ]]>
  </style>
 </defs>
 <g id="Layer_x0020_1">
  <metadata id="CorelCorpID_0Corel-Layer"/>
  <path class="fil0" d="M52.83 0.98c-34.76,6.13 -57.98,39.28 -51.85,74.04 2.35,13.35 8.69,24.99 17.57,33.92l2.61 14.8 14.41 -2.54c11.79,5.86 25.49,8.13 39.45,5.67 34.76,-6.13 57.98,-39.28 51.85,-74.04 -6.13,-34.76 -39.28,-57.98 -74.04,-51.85zm-8.37 71.76c4.68,0 8.48,3.8 8.48,8.49 0,4.68 -3.8,8.48 -8.48,8.48 -4.69,0 -8.49,-3.8 -8.49,-8.48 0,-4.69 3.8,-8.49 8.49,-8.49zm36.65 0c4.68,0 8.48,3.8 8.48,8.49 0,4.68 -3.8,8.48 -8.48,8.48 -4.69,0 -8.49,-3.8 -8.49,-8.48 0,-4.69 3.8,-8.49 8.49,-8.49zm-18.32 0c4.69,0 8.48,3.79 8.48,8.48 0,4.7 -3.79,8.49 -8.48,8.49 -4.7,0 -8.49,-3.79 -8.49,-8.49 0,-4.69 3.79,-8.48 8.49,-8.48z"/>
 </g>
</svg>
