<?xml version="1.0" encoding="UTF-8"?>
<!DOCTYPE svg PUBLIC "-//W3C//DTD SVG 1.1//EN" "http://www.w3.org/Graphics/SVG/1.1/DTD/svg11.dtd">
<!-- Creator: CorelDRAW (OEM Version) -->
<svg xmlns="http://www.w3.org/2000/svg" xml:space="preserve" width="26px" height="26px" version="1.1" style="shape-rendering:geometricPrecision; text-rendering:geometricPrecision; image-rendering:optimizeQuality; fill-rule:evenodd; clip-rule:evenodd"
viewBox="0 0 25.6 25.6"
 xmlns:xlink="http://www.w3.org/1999/xlink"
 xmlns:xodm="http://www.corel.com/coreldraw/odm/2003">
 <defs>
  <style type="text/css">
   <![CDATA[
    .str1 {stroke:black;stroke-width:1.97;stroke-miterlimit:2.61313}
    .str0 {stroke:black;stroke-width:1.97;stroke-linecap:round;stroke-miterlimit:2.61313}
    .fil0 {fill:none}
   ]]>
  </style>
 </defs>
 <g id="Layer_x0020_1">
  <metadata id="CorelCorpID_0Corel-Layer"/>
  <g id="_1941021994592">
   <path class="fil0 str0" d="M7.45 9.49c0.28,1.36 1.01,2.85 2,4.17"/>
   <path class="fil0 str1" d="M23.87 1.54c0.9,0.81 1,2.24 0.22,3.19 -0.78,0.94 -2.15,1.05 -3.06,0.23 -0.9,-0.82 -1,-2.25 -0.22,-3.19 0.78,-0.95 2.15,-1.05 3.06,-0.23zm-19.66 16.22c-0.79,0.21 -1.68,0.04 -2.34,-0.54 -1.07,-0.93 -1.19,-2.55 -0.26,-3.62 0.17,-0.2 0.36,-0.37 0.57,-0.5 0.24,1.47 0.94,3.09 2.03,4.66zm18.71 -12.11c2.21,3.48 1.34,9.3 -2.12,14.77 -0.03,1.05 -0.35,1.99 -0.98,2.72 -2.29,2.66 -7.81,1.63 -12.33,-2.31 -4.53,-3.93 -6.34,-9.28 -4.05,-11.93 0.63,-0.74 1.51,-1.19 2.54,-1.38 4.89,-4.22 10.5,-5.92 14.23,-4.22 0.06,0.65 0.35,1.28 0.88,1.73 0.52,0.46 1.18,0.66 1.83,0.62z"/>
  </g>
 </g>
</svg>
