<?xml version="1.0" encoding="UTF-8"?>
<!DOCTYPE svg PUBLIC "-//W3C//DTD SVG 1.1//EN" "http://www.w3.org/Graphics/SVG/1.1/DTD/svg11.dtd">
<!-- Creator: CorelDRAW -->
<svg xmlns="http://www.w3.org/2000/svg" xml:space="preserve" width="2.032mm" height="1.989mm" version="1.1" style="shape-rendering:geometricPrecision; text-rendering:geometricPrecision; image-rendering:optimizeQuality; fill-rule:evenodd; clip-rule:evenodd"
viewBox="0 0 86.91 85.07"
 xmlns:xlink="http://www.w3.org/1999/xlink"
 xmlns:xodm="http://www.corel.com/coreldraw/odm/2003">
 <defs>
  <style type="text/css">
   <![CDATA[
    .fil0 {fill:black}
   ]]>
  </style>
 </defs>
 <g id="Layer_x0020_1">
  <metadata id="CorelCorpID_0Corel-Layer"/>
  <g id="_42078297120">
   <path class="fil0" d="M78.97 18.5c7.95,12.19 4.85,32.63 -7.6,51.85 -0.13,3.7 -1.28,6.98 -3.55,9.55 -8.23,9.34 -28.11,5.71 -44.4,-8.11 -16.28,-13.81 -22.79,-32.57 -14.56,-41.91 2.27,-2.57 5.42,-4.15 9.13,-4.82 17.61,-14.85 37.81,-20.78 51.25,-14.82 0.19,2.27 1.26,4.47 3.15,6.07 1.9,1.62 4.27,2.33 6.59,2.19zm-59.15 14.17c-0.39,-1.86 0.83,-3.7 2.74,-4.08 1.91,-0.38 3.79,0.81 4.18,2.68 0.44,2.09 1.25,4.29 2.33,6.48 1.12,2.28 2.57,4.59 4.24,6.78 1.17,1.53 0.85,3.7 -0.72,4.84 -1.57,1.14 -3.79,0.83 -4.96,-0.7 -1.91,-2.5 -3.6,-5.21 -4.94,-7.94 -1.33,-2.7 -2.33,-5.44 -2.88,-8.05z"/>
   <path class="fil0" d="M11.61 60.99c-2.85,0.76 -6.02,0.15 -8.43,-1.89 -3.84,-3.25 -4.26,-8.95 -0.93,-12.72 0.62,-0.69 1.31,-1.27 2.07,-1.74 0.87,5.18 3.38,10.84 7.29,16.35z"/>
   <path class="fil0" d="M84.21 1.94c3.25,2.87 3.61,7.89 0.8,11.2 -2.81,3.32 -7.74,3.68 -11,0.81 -3.25,-2.87 -3.61,-7.89 -0.79,-11.2 2.82,-3.32 7.74,-3.68 11,-0.81z"/>
  </g>
 </g>
</svg>
