<?xml version="1.0" encoding="UTF-8"?>
<!DOCTYPE svg PUBLIC "-//W3C//DTD SVG 1.1//EN" "http://www.w3.org/Graphics/SVG/1.1/DTD/svg11.dtd">
<!-- Creator: CorelDRAW -->
<svg xmlns="http://www.w3.org/2000/svg" xml:space="preserve" width="2.032mm" height="1.4596mm" version="1.1" style="shape-rendering:geometricPrecision; text-rendering:geometricPrecision; image-rendering:optimizeQuality; fill-rule:evenodd; clip-rule:evenodd"
viewBox="0 0 203.2 145.96"
 xmlns:xlink="http://www.w3.org/1999/xlink"
 xmlns:xodm="http://www.corel.com/coreldraw/odm/2003">
 <defs>
  <style type="text/css">
   <![CDATA[
    .fil0 {fill:black}
   ]]>
  </style>
 </defs>
 <g id="Layer_x0020_1">
  <metadata id="CorelCorpID_0Corel-Layer"/>
  <path class="fil0" d="M107.68 50c8.24,2.18 14.72,8.66 16.9,16.9l31.88 0c2.69,-10.18 11.96,-17.68 22.98,-17.68 13.12,0 23.76,10.64 23.76,23.76 0,13.12 -10.64,23.77 -23.76,23.77 -11.02,0 -20.28,-7.51 -22.98,-17.69l-31.88 0c-2.18,8.24 -8.66,14.71 -16.9,16.89l0 20.16 11.23 0c2.69,-10.17 11.96,-17.68 22.98,-17.68 13.12,0 23.76,10.64 23.76,23.77 0,13.11 -10.64,23.76 -23.76,23.76 -11.02,0 -20.29,-7.51 -22.98,-17.68l-34.62 0c-2.69,10.17 -11.96,17.68 -22.98,17.68 -13.12,0 -23.76,-10.65 -23.76,-23.76 0,-13.13 10.64,-23.77 23.76,-23.77 11.02,0 20.29,7.51 22.98,17.68l11.23 0 0 -20.16c-8.23,-2.18 -14.71,-8.65 -16.89,-16.89l-31.89 0c-2.68,10.18 -11.96,17.68 -22.97,17.68 -13.12,0 -23.77,-10.64 -23.77,-23.77 0,-13.11 10.65,-23.76 23.77,-23.76 11.01,0 20.28,7.51 22.97,17.69l31.89 0c2.18,-8.24 8.66,-14.72 16.89,-16.9l0 -20.15 -11.23 0c-2.69,10.18 -11.95,17.68 -22.97,17.68 -13.14,0 -23.77,-10.63 -23.77,-23.77 0,-13.13 10.63,-23.76 23.77,-23.76 11.03,0 20.29,7.5 22.98,17.68l34.61 0c2.69,-10.17 11.96,-17.68 22.98,-17.68 13.12,0 23.76,10.65 23.76,23.76 0,13.13 -10.64,23.77 -23.76,23.77 -11.02,0 -20.29,-7.51 -22.98,-17.68l-11.23 0 0 20.15z"/>
 </g>
</svg>
