<?xml version="1.0" encoding="UTF-8"?>
<!DOCTYPE svg PUBLIC "-//W3C//DTD SVG 1.1//EN" "http://www.w3.org/Graphics/SVG/1.1/DTD/svg11.dtd">
<!-- Creator: CorelDRAW -->
<svg xmlns="http://www.w3.org/2000/svg" xml:space="preserve" width="2.125mm" height="1.5466mm" version="1.1" style="shape-rendering:geometricPrecision; text-rendering:geometricPrecision; image-rendering:optimizeQuality; fill-rule:evenodd; clip-rule:evenodd"
viewBox="0 0 141.99 103.34"
 xmlns:xlink="http://www.w3.org/1999/xlink"
 xmlns:xodm="http://www.corel.com/coreldraw/odm/2003">
 <defs>
  <style type="text/css">
   <![CDATA[
    .str0 {stroke:black;stroke-width:11.31;stroke-miterlimit:22.9256}
    .fil0 {fill:none}
   ]]>
  </style>
 </defs>
 <g id="Layer_x0020_1">
  <metadata id="CorelCorpID_0Corel-Layer"/>
  <g id="_42226176800">
   <line class="fil0 str0" x1="71.4" y1="20.49" x2="71.4" y2= "40.71" />
   <g>
    <path class="fil0 str0" d="M44.03 5.66c7.06,0 12.79,5.73 12.79,12.79 0,7.06 -5.73,12.79 -12.79,12.79 -7.06,0 -12.79,-5.73 -12.79,-12.79 0,-7.06 5.73,-12.79 12.79,-12.79z"/>
    <path class="fil0 str0" d="M97.96 5.66c7.06,0 12.79,5.73 12.79,12.79 0,7.06 -5.73,12.79 -12.79,12.79 -7.06,0 -12.79,-5.73 -12.79,-12.79 0,-7.06 5.73,-12.79 12.79,-12.79z"/>
    <path class="fil0 str0" d="M123.54 39.35c7.06,0 12.79,5.73 12.79,12.79 0,7.06 -5.73,12.79 -12.79,12.79 -7.06,0 -12.79,-5.73 -12.79,-12.79 0,-7.06 5.73,-12.79 12.79,-12.79z"/>
    <path class="fil0 str0" d="M97.96 72.11c7.06,0 12.79,5.73 12.79,12.79 0,7.06 -5.73,12.79 -12.79,12.79 -7.06,0 -12.79,-5.73 -12.79,-12.79 0,-7.06 5.73,-12.79 12.79,-12.79z"/>
    <path class="fil0 str0" d="M44.03 72.11c7.06,0 12.79,5.73 12.79,12.79 0,7.06 -5.73,12.79 -12.79,12.79 -7.06,0 -12.79,-5.73 -12.79,-12.79 0,-7.06 5.73,-12.79 12.79,-12.79z"/>
    <path class="fil0 str0" d="M71.4 39.35c7.06,0 12.79,5.73 12.79,12.79 0,7.06 -5.73,12.79 -12.79,12.79 -7.06,0 -12.79,-5.73 -12.79,-12.79 0,-7.06 5.73,-12.79 12.79,-12.79z"/>
    <path class="fil0 str0" d="M18.45 39.35c7.06,0 12.79,5.73 12.79,12.79 0,7.06 -5.73,12.79 -12.79,12.79 -7.06,0 -12.79,-5.73 -12.79,-12.79 0,-7.06 5.73,-12.79 12.79,-12.79z"/>
    <line class="fil0 str0" x1="58.61" y1="18.45" x2="85.18" y2= "18.45" />
    <line class="fil0 str0" x1="31.24" y1="52.14" x2="56.97" y2= "52.14" />
    <line class="fil0 str0" x1="84.19" y1="52.14" x2="108.29" y2= "52.13" />
    <line class="fil0 str0" x1="58.61" y1="84.89" x2="83.62" y2= "84.89" />
    <line class="fil0 str0" x1="71.39" y1="66.99" x2="71.4" y2= "84.89" />
   </g>
  </g>
 </g>
</svg>
